<svg width="112" height="30" viewBox="0 0 112 30" fill="none" xmlns="http://www.w3.org/2000/svg">
<g filter="url(#filter0_b)">
<rect width="112" height="30" rx="4" fill="black" fill-opacity="0.5"/>
<path d="M11.6479 19C11.5679 19 11.4999 18.972 11.4439 18.916C11.3879 18.86 11.3599 18.792 11.3599 18.712V10.9C11.3599 10.812 11.3839 10.74 11.4319 10.684C11.4879 10.628 11.5599 10.6 11.6479 10.6H15.1279C16.0639 10.6 16.7599 10.808 17.2159 11.224C17.6799 11.632 17.9119 12.192 17.9119 12.904C17.9119 13.32 17.8079 13.676 17.5999 13.972C17.3999 14.26 17.1639 14.468 16.8919 14.596C17.2279 14.748 17.5079 14.996 17.7319 15.34C17.9639 15.684 18.0799 16.076 18.0799 16.516C18.0799 17.26 17.8279 17.86 17.3239 18.316C16.8279 18.772 16.1279 19 15.2239 19H11.6479ZM14.9119 14.044C15.3279 14.044 15.6439 13.944 15.8599 13.744C16.0759 13.544 16.1839 13.276 16.1839 12.94C16.1839 12.596 16.0759 12.332 15.8599 12.148C15.6439 11.956 15.3279 11.86 14.9119 11.86H13.0279V14.044H14.9119ZM15.0319 17.728C15.4479 17.728 15.7719 17.616 16.0039 17.392C16.2359 17.16 16.3519 16.868 16.3519 16.516C16.3519 16.156 16.2359 15.864 16.0039 15.64C15.7719 15.408 15.4479 15.292 15.0319 15.292H13.0279V17.728H15.0319Z" fill="white"/>
<path d="M19.8744 19C19.7944 19 19.7264 18.972 19.6704 18.916C19.6144 18.86 19.5864 18.792 19.5864 18.712V10.9C19.5864 10.812 19.6104 10.74 19.6584 10.684C19.7144 10.628 19.7864 10.6 19.8744 10.6H25.1544C25.2424 10.6 25.3144 10.628 25.3704 10.684C25.4264 10.74 25.4544 10.812 25.4544 10.9V11.692C25.4544 11.78 25.4264 11.852 25.3704 11.908C25.3144 11.956 25.2424 11.98 25.1544 11.98H21.2064V14.104H24.8904C24.9784 14.104 25.0504 14.132 25.1064 14.188C25.1624 14.236 25.1904 14.304 25.1904 14.392V15.136C25.1904 15.224 25.1624 15.296 25.1064 15.352C25.0504 15.4 24.9784 15.424 24.8904 15.424H21.2064V17.62H25.2504C25.3384 17.62 25.4104 17.648 25.4664 17.704C25.5224 17.76 25.5504 17.832 25.5504 17.92V18.712C25.5504 18.8 25.5224 18.872 25.4664 18.928C25.4104 18.976 25.3384 19 25.2504 19H19.8744Z" fill="white"/>
<path d="M29.9673 19.12C29.2553 19.12 28.6433 19.012 28.1313 18.796C27.6193 18.58 27.2313 18.296 26.9673 17.944C26.7033 17.592 26.5633 17.212 26.5473 16.804C26.5473 16.732 26.5713 16.672 26.6193 16.624C26.6673 16.576 26.7273 16.552 26.7993 16.552H27.8673C27.9633 16.552 28.0353 16.572 28.0833 16.612C28.1393 16.644 28.1913 16.7 28.2393 16.78C28.3193 17.052 28.5033 17.28 28.7913 17.464C29.0793 17.648 29.4713 17.74 29.9673 17.74C30.5353 17.74 30.9633 17.648 31.2513 17.464C31.5393 17.272 31.6833 17.008 31.6833 16.672C31.6833 16.448 31.6073 16.264 31.4553 16.12C31.3113 15.976 31.0913 15.852 30.7953 15.748C30.5073 15.644 30.0753 15.516 29.4993 15.364C28.5553 15.14 27.8633 14.844 27.4233 14.476C26.9913 14.1 26.7753 13.568 26.7753 12.88C26.7753 12.416 26.8993 12.004 27.1473 11.644C27.4033 11.284 27.7673 11 28.2393 10.792C28.7193 10.584 29.2753 10.48 29.9073 10.48C30.5633 10.48 31.1313 10.596 31.6113 10.828C32.0913 11.06 32.4553 11.352 32.7033 11.704C32.9593 12.048 33.0953 12.392 33.1113 12.736C33.1113 12.808 33.0873 12.868 33.0393 12.916C32.9913 12.964 32.9313 12.988 32.8593 12.988H31.7433C31.5753 12.988 31.4593 12.912 31.3953 12.76C31.3473 12.504 31.1873 12.292 30.9153 12.124C30.6433 11.948 30.3073 11.86 29.9073 11.86C29.4593 11.86 29.1073 11.944 28.8513 12.112C28.5953 12.28 28.4673 12.524 28.4673 12.844C28.4673 13.068 28.5313 13.252 28.6593 13.396C28.7873 13.54 28.9873 13.668 29.2593 13.78C29.5393 13.892 29.9393 14.016 30.4593 14.152C31.1633 14.312 31.7233 14.492 32.1393 14.692C32.5633 14.892 32.8753 15.144 33.0753 15.448C33.2753 15.752 33.3753 16.14 33.3753 16.612C33.3753 17.124 33.2313 17.572 32.9433 17.956C32.6633 18.332 32.2633 18.62 31.7433 18.82C31.2313 19.02 30.6393 19.12 29.9673 19.12Z" fill="white"/>
<path d="M36.7927 19C36.7127 19 36.6447 18.972 36.5887 18.916C36.5327 18.86 36.5047 18.792 36.5047 18.712V12.076H34.2847C34.2047 12.076 34.1367 12.048 34.0807 11.992C34.0247 11.936 33.9967 11.868 33.9967 11.788V10.9C33.9967 10.812 34.0207 10.74 34.0687 10.684C34.1247 10.628 34.1967 10.6 34.2847 10.6H40.4047C40.4927 10.6 40.5647 10.628 40.6207 10.684C40.6767 10.74 40.7047 10.812 40.7047 10.9V11.788C40.7047 11.868 40.6767 11.936 40.6207 11.992C40.5647 12.048 40.4927 12.076 40.4047 12.076H38.1967V18.712C38.1967 18.792 38.1687 18.86 38.1127 18.916C38.0567 18.972 37.9847 19 37.8967 19H36.7927Z" fill="white"/>
<path d="M44.8032 19.12C44.0912 19.12 43.4792 19.012 42.9672 18.796C42.4552 18.58 42.0672 18.296 41.8032 17.944C41.5392 17.592 41.3992 17.212 41.3832 16.804C41.3832 16.732 41.4072 16.672 41.4552 16.624C41.5032 16.576 41.5632 16.552 41.6352 16.552H42.7032C42.7992 16.552 42.8712 16.572 42.9192 16.612C42.9752 16.644 43.0272 16.7 43.0752 16.78C43.1552 17.052 43.3392 17.28 43.6272 17.464C43.9152 17.648 44.3072 17.74 44.8032 17.74C45.3712 17.74 45.7992 17.648 46.0872 17.464C46.3752 17.272 46.5192 17.008 46.5192 16.672C46.5192 16.448 46.4432 16.264 46.2912 16.12C46.1472 15.976 45.9272 15.852 45.6312 15.748C45.3432 15.644 44.9112 15.516 44.3352 15.364C43.3912 15.14 42.6992 14.844 42.2592 14.476C41.8272 14.1 41.6112 13.568 41.6112 12.88C41.6112 12.416 41.7352 12.004 41.9832 11.644C42.2392 11.284 42.6032 11 43.0752 10.792C43.5552 10.584 44.1112 10.48 44.7432 10.48C45.3992 10.48 45.9672 10.596 46.4472 10.828C46.9272 11.06 47.2912 11.352 47.5392 11.704C47.7952 12.048 47.9312 12.392 47.9472 12.736C47.9472 12.808 47.9232 12.868 47.8752 12.916C47.8272 12.964 47.7672 12.988 47.6952 12.988H46.5792C46.4112 12.988 46.2952 12.912 46.2312 12.76C46.1832 12.504 46.0232 12.292 45.7512 12.124C45.4792 11.948 45.1432 11.86 44.7432 11.86C44.2952 11.86 43.9432 11.944 43.6872 12.112C43.4312 12.28 43.3032 12.524 43.3032 12.844C43.3032 13.068 43.3672 13.252 43.4952 13.396C43.6232 13.54 43.8232 13.668 44.0952 13.78C44.3752 13.892 44.7752 14.016 45.2952 14.152C45.9992 14.312 46.5592 14.492 46.9752 14.692C47.3992 14.892 47.7112 15.144 47.9112 15.448C48.1112 15.752 48.2112 16.14 48.2112 16.612C48.2112 17.124 48.0672 17.572 47.7792 17.956C47.4992 18.332 47.0992 18.62 46.5792 18.82C46.0672 19.02 45.4752 19.12 44.8032 19.12Z" fill="white"/>
<path d="M49.8744 19C49.7944 19 49.7264 18.972 49.6704 18.916C49.6144 18.86 49.5864 18.792 49.5864 18.712V10.9C49.5864 10.812 49.6104 10.74 49.6584 10.684C49.7144 10.628 49.7864 10.6 49.8744 10.6H55.1544C55.2424 10.6 55.3144 10.628 55.3704 10.684C55.4264 10.74 55.4544 10.812 55.4544 10.9V11.692C55.4544 11.78 55.4264 11.852 55.3704 11.908C55.3144 11.956 55.2424 11.98 55.1544 11.98H51.2064V14.104H54.8904C54.9784 14.104 55.0504 14.132 55.1064 14.188C55.1624 14.236 55.1904 14.304 55.1904 14.392V15.136C55.1904 15.224 55.1624 15.296 55.1064 15.352C55.0504 15.4 54.9784 15.424 54.8904 15.424H51.2064V17.62H55.2504C55.3384 17.62 55.4104 17.648 55.4664 17.704C55.5224 17.76 55.5504 17.832 55.5504 17.92V18.712C55.5504 18.8 55.5224 18.872 55.4664 18.928C55.4104 18.976 55.3384 19 55.2504 19H49.8744Z" fill="white"/>
<path d="M57.3393 19C57.2593 19 57.1913 18.972 57.1353 18.916C57.0793 18.86 57.0513 18.792 57.0513 18.712V10.888C57.0513 10.8 57.0793 10.732 57.1353 10.684C57.1913 10.628 57.2593 10.6 57.3393 10.6H58.4553C58.5433 10.6 58.6113 10.628 58.6593 10.684C58.7153 10.732 58.7433 10.8 58.7433 10.888V17.572H62.5473C62.6353 17.572 62.7073 17.6 62.7633 17.656C62.8193 17.712 62.8473 17.784 62.8473 17.872V18.712C62.8473 18.8 62.8193 18.872 62.7633 18.928C62.7073 18.976 62.6353 19 62.5473 19H57.3393Z" fill="white"/>
<path d="M64.3002 19C64.2202 19 64.1522 18.972 64.0962 18.916C64.0402 18.86 64.0122 18.792 64.0122 18.712V10.888C64.0122 10.8 64.0402 10.732 64.0962 10.684C64.1522 10.628 64.2202 10.6 64.3002 10.6H65.4162C65.5042 10.6 65.5722 10.628 65.6202 10.684C65.6762 10.732 65.7042 10.8 65.7042 10.888V17.572H69.5082C69.5962 17.572 69.6682 17.6 69.7242 17.656C69.7802 17.712 69.8082 17.784 69.8082 17.872V18.712C69.8082 18.8 69.7802 18.872 69.7242 18.928C69.6682 18.976 69.5962 19 69.5082 19H64.3002Z" fill="white"/>
<path d="M71.2611 19C71.1811 19 71.1131 18.972 71.0571 18.916C71.0011 18.86 70.9731 18.792 70.9731 18.712V10.9C70.9731 10.812 70.9971 10.74 71.0451 10.684C71.1011 10.628 71.1731 10.6 71.2611 10.6H76.5411C76.6291 10.6 76.7011 10.628 76.7571 10.684C76.8131 10.74 76.8411 10.812 76.8411 10.9V11.692C76.8411 11.78 76.8131 11.852 76.7571 11.908C76.7011 11.956 76.6291 11.98 76.5411 11.98H72.5931V14.104H76.2771C76.3651 14.104 76.4371 14.132 76.4931 14.188C76.5491 14.236 76.5771 14.304 76.5771 14.392V15.136C76.5771 15.224 76.5491 15.296 76.4931 15.352C76.4371 15.4 76.3651 15.424 76.2771 15.424H72.5931V17.62H76.6371C76.7251 17.62 76.7971 17.648 76.8531 17.704C76.9091 17.76 76.9371 17.832 76.9371 17.92V18.712C76.9371 18.8 76.9091 18.872 76.8531 18.928C76.7971 18.976 76.7251 19 76.6371 19H71.2611Z" fill="white"/>
<path d="M78.726 19C78.646 19 78.578 18.972 78.522 18.916C78.466 18.86 78.438 18.792 78.438 18.712V10.9C78.438 10.812 78.462 10.74 78.51 10.684C78.566 10.628 78.638 10.6 78.726 10.6H81.834C82.81 10.6 83.574 10.828 84.126 11.284C84.686 11.74 84.966 12.388 84.966 13.228C84.966 13.812 84.822 14.304 84.534 14.704C84.254 15.096 83.862 15.38 83.358 15.556L85.11 18.616C85.134 18.664 85.146 18.708 85.146 18.748C85.146 18.82 85.118 18.88 85.062 18.928C85.014 18.976 84.958 19 84.894 19H83.802C83.674 19 83.574 18.972 83.502 18.916C83.438 18.86 83.378 18.78 83.322 18.676L81.774 15.832H80.106V18.712C80.106 18.792 80.078 18.86 80.022 18.916C79.974 18.972 79.906 19 79.818 19H78.726ZM81.798 14.476C82.278 14.476 82.638 14.368 82.878 14.152C83.126 13.936 83.25 13.624 83.25 13.216C83.25 12.808 83.126 12.492 82.878 12.268C82.638 12.044 82.278 11.932 81.798 11.932H80.106V14.476H81.798Z" fill="white"/>
<path d="M94.1033 9.81699C94.4701 9.07374 95.5299 9.07374 95.8967 9.81699L96.8246 11.697C96.9702 11.9921 97.2518 12.1967 97.5775 12.244L99.6522 12.5455C100.472 12.6647 100.8 13.6727 100.206 14.2512L98.7052 15.7146C98.4695 15.9443 98.3619 16.2753 98.4176 16.5997L98.772 18.6661C98.9121 19.483 98.0547 20.1059 97.321 19.7202L95.4653 18.7446C95.174 18.5915 94.826 18.5915 94.5347 18.7446L92.679 19.7202C91.9453 20.1059 91.0879 19.483 91.228 18.6661L91.5824 16.5997C91.6381 16.2753 91.5305 15.9443 91.2948 15.7146L89.7936 14.2512C89.2 13.6727 89.5275 12.6647 90.3478 12.5455L92.4225 12.244C92.7482 12.1967 93.0298 11.9921 93.1754 11.697L94.1033 9.81699Z" fill="white"/>
</g>
<defs>
<filter id="filter0_b" x="-20" y="-20" width="152" height="70" filterUnits="userSpaceOnUse" color-interpolation-filters="sRGB">
<feFlood flood-opacity="0" result="BackgroundImageFix"/>
<feGaussianBlur in="BackgroundImage" stdDeviation="10"/>
<feComposite in2="SourceAlpha" operator="in" result="effect1_backgroundBlur"/>
<feBlend mode="normal" in="SourceGraphic" in2="effect1_backgroundBlur" result="shape"/>
</filter>
</defs>
</svg>
