<svg width="112" height="38" viewBox="0 0 112 38" fill="none" xmlns="http://www.w3.org/2000/svg">
<g filter="url(#filter0_bd)">
<rect x="4" y="4" width="104" height="30" rx="4" fill="url(#paint0_linear)"/>
<path d="M13.5402 23C13.4602 23 13.3882 22.972 13.3242 22.916C13.2682 22.852 13.2402 22.78 13.2402 22.7V14.9C13.2402 14.812 13.2682 14.74 13.3242 14.684C13.3882 14.628 13.4602 14.6 13.5402 14.6H14.8362C15.0282 14.6 15.1682 14.688 15.2562 14.864L17.3682 18.644L19.4802 14.864C19.5682 14.688 19.7082 14.6 19.9002 14.6H21.1842C21.2722 14.6 21.3442 14.628 21.4002 14.684C21.4642 14.74 21.4962 14.812 21.4962 14.9V22.7C21.4962 22.788 21.4642 22.86 21.4002 22.916C21.3442 22.972 21.2722 23 21.1842 23H19.7562C19.6682 23 19.5922 22.972 19.5282 22.916C19.4722 22.86 19.4442 22.788 19.4442 22.7V18.2L18.1002 20.708C17.9962 20.892 17.8562 20.984 17.6802 20.984H17.0562C16.9522 20.984 16.8682 20.96 16.8042 20.912C16.7402 20.864 16.6842 20.796 16.6362 20.708L15.2802 18.2V22.7C15.2802 22.78 15.2522 22.852 15.1962 22.916C15.1402 22.972 15.0682 23 14.9802 23H13.5402Z" fill="white"/>
<path d="M26.7057 23.12C25.5777 23.12 24.6937 22.844 24.0537 22.292C23.4217 21.74 23.1057 20.908 23.1057 19.796V14.9C23.1057 14.812 23.1337 14.74 23.1897 14.684C23.2537 14.628 23.3257 14.6 23.4057 14.6H24.9537C25.0417 14.6 25.1137 14.628 25.1697 14.684C25.2337 14.74 25.2657 14.812 25.2657 14.9V19.784C25.2657 20.304 25.3857 20.696 25.6257 20.96C25.8737 21.216 26.2297 21.344 26.6937 21.344C27.1497 21.344 27.5017 21.212 27.7497 20.948C27.9977 20.684 28.1217 20.296 28.1217 19.784V14.9C28.1217 14.812 28.1497 14.74 28.2057 14.684C28.2697 14.628 28.3417 14.6 28.4217 14.6H29.9817C30.0697 14.6 30.1417 14.628 30.1977 14.684C30.2537 14.74 30.2817 14.812 30.2817 14.9V19.796C30.2817 20.908 29.9617 21.74 29.3217 22.292C28.6897 22.844 27.8177 23.12 26.7057 23.12Z" fill="white"/>
<path d="M35.005 23.12C34.245 23.12 33.593 23.008 33.049 22.784C32.505 22.56 32.093 22.268 31.813 21.908C31.541 21.54 31.397 21.14 31.381 20.708C31.381 20.644 31.405 20.588 31.453 20.54C31.509 20.484 31.573 20.456 31.645 20.456H33.157C33.253 20.456 33.329 20.476 33.385 20.516C33.449 20.548 33.513 20.6 33.577 20.672C33.681 20.88 33.849 21.052 34.081 21.188C34.313 21.324 34.621 21.392 35.005 21.392C35.461 21.392 35.809 21.32 36.049 21.176C36.289 21.032 36.409 20.836 36.409 20.588C36.409 20.412 36.345 20.268 36.217 20.156C36.097 20.044 35.905 19.944 35.641 19.856C35.377 19.768 34.985 19.668 34.465 19.556C33.505 19.356 32.785 19.064 32.305 18.68C31.833 18.288 31.597 17.732 31.597 17.012C31.597 16.524 31.733 16.088 32.005 15.704C32.277 15.32 32.665 15.02 33.169 14.804C33.673 14.588 34.261 14.48 34.933 14.48C35.629 14.48 36.233 14.6 36.745 14.84C37.257 15.08 37.645 15.384 37.909 15.752C38.181 16.112 38.325 16.468 38.341 16.82C38.341 16.892 38.317 16.952 38.269 17C38.221 17.048 38.161 17.072 38.089 17.072H36.505C36.409 17.072 36.329 17.056 36.265 17.024C36.209 16.992 36.157 16.94 36.109 16.868C36.061 16.684 35.929 16.528 35.713 16.4C35.505 16.272 35.245 16.208 34.933 16.208C34.573 16.208 34.297 16.272 34.105 16.4C33.913 16.528 33.817 16.716 33.817 16.964C33.817 17.132 33.869 17.272 33.973 17.384C34.085 17.496 34.261 17.6 34.501 17.696C34.749 17.784 35.101 17.876 35.557 17.972C36.301 18.108 36.893 18.28 37.333 18.488C37.781 18.688 38.109 18.952 38.317 19.28C38.525 19.6 38.629 20.004 38.629 20.492C38.629 21.028 38.473 21.496 38.161 21.896C37.857 22.288 37.429 22.592 36.877 22.808C36.333 23.016 35.709 23.12 35.005 23.12Z" fill="white"/>
<path d="M41.896 23C41.816 23 41.744 22.972 41.68 22.916C41.624 22.852 41.596 22.78 41.596 22.7V16.484H39.46C39.38 16.484 39.308 16.456 39.244 16.4C39.188 16.336 39.16 16.264 39.16 16.184V14.9C39.16 14.812 39.188 14.74 39.244 14.684C39.308 14.628 39.38 14.6 39.46 14.6H45.916C46.004 14.6 46.076 14.628 46.132 14.684C46.188 14.74 46.216 14.812 46.216 14.9V16.184C46.216 16.272 46.188 16.344 46.132 16.4C46.076 16.456 46.004 16.484 45.916 16.484H43.78V22.7C43.78 22.78 43.752 22.852 43.696 22.916C43.64 22.972 43.568 23 43.48 23H41.896Z" fill="white"/>
<path d="M49.8801 23C49.7921 23 49.7201 22.972 49.6641 22.916C49.6081 22.86 49.5801 22.788 49.5801 22.7V14.9C49.5801 14.812 49.6081 14.74 49.6641 14.684C49.7281 14.628 49.8001 14.6 49.8801 14.6H51.4281C51.5161 14.6 51.5881 14.628 51.6441 14.684C51.7081 14.74 51.7401 14.812 51.7401 14.9V17.792H54.6921V14.9C54.6921 14.812 54.7201 14.74 54.7761 14.684C54.8321 14.628 54.9041 14.6 54.9921 14.6H56.5401C56.6281 14.6 56.7001 14.628 56.7561 14.684C56.8121 14.74 56.8401 14.812 56.8401 14.9V22.7C56.8401 22.788 56.8121 22.86 56.7561 22.916C56.7001 22.972 56.6281 23 56.5401 23H54.9921C54.9041 23 54.8321 22.972 54.7761 22.916C54.7201 22.86 54.6921 22.788 54.6921 22.7V19.712H51.7401V22.7C51.7401 22.788 51.7081 22.86 51.6441 22.916C51.5881 22.972 51.5161 23 51.4281 23H49.8801Z" fill="white"/>
<path d="M58.0415 23C57.9775 23 57.9175 22.976 57.8615 22.928C57.8135 22.872 57.7895 22.812 57.7895 22.748C57.7895 22.7 57.7935 22.664 57.8015 22.64L60.6215 14.936C60.6455 14.84 60.6975 14.76 60.7775 14.696C60.8575 14.632 60.9615 14.6 61.0895 14.6H62.8655C62.9935 14.6 63.0975 14.632 63.1775 14.696C63.2575 14.76 63.3095 14.84 63.3335 14.936L66.1415 22.64L66.1655 22.748C66.1655 22.812 66.1375 22.872 66.0815 22.928C66.0335 22.976 65.9735 23 65.9015 23H64.4255C64.2335 23 64.1055 22.916 64.0415 22.748L63.5735 21.524H60.3695L59.9135 22.748C59.8495 22.916 59.7175 23 59.5175 23H58.0415ZM63.0935 19.796L61.9775 16.628L60.8615 19.796H63.0935Z" fill="white"/>
<path d="M68.8551 23C68.5991 23 68.4351 22.88 68.3631 22.64L65.9151 14.96L65.8911 14.852C65.8911 14.788 65.9151 14.732 65.9631 14.684C66.0191 14.628 66.0831 14.6 66.1551 14.6H67.6431C67.7551 14.6 67.8471 14.632 67.9191 14.696C67.9991 14.76 68.0511 14.832 68.0751 14.912L69.7791 20.456L71.4711 14.912C71.4951 14.832 71.5431 14.76 71.6151 14.696C71.6951 14.632 71.7911 14.6 71.9031 14.6H73.4031C73.4671 14.6 73.5231 14.628 73.5711 14.684C73.6271 14.732 73.6551 14.788 73.6551 14.852L73.6311 14.96L71.1831 22.64C71.1111 22.88 70.9471 23 70.6911 23H68.8551Z" fill="white"/>
<path d="M75.0754 23C74.9954 23 74.9234 22.972 74.8594 22.916C74.8034 22.852 74.7754 22.78 74.7754 22.7V14.9C74.7754 14.812 74.8034 14.74 74.8594 14.684C74.9234 14.628 74.9954 14.6 75.0754 14.6H80.6794C80.7674 14.6 80.8394 14.628 80.8954 14.684C80.9514 14.74 80.9794 14.812 80.9794 14.9V16.028C80.9794 16.108 80.9514 16.18 80.8954 16.244C80.8394 16.3 80.7674 16.328 80.6794 16.328H76.8514V17.948H80.4154C80.5034 17.948 80.5754 17.98 80.6314 18.044C80.6874 18.1 80.7154 18.172 80.7154 18.26V19.304C80.7154 19.384 80.6874 19.456 80.6314 19.52C80.5754 19.576 80.5034 19.604 80.4154 19.604H76.8514V21.272H80.7754C80.8634 21.272 80.9354 21.3 80.9914 21.356C81.0474 21.412 81.0754 21.484 81.0754 21.572V22.7C81.0754 22.78 81.0474 22.852 80.9914 22.916C80.9354 22.972 80.8634 23 80.7754 23H75.0754Z" fill="white"/>
<path d="M95.0283 20.1421L94.359 17.4744L92.8241 14.0459C92.6288 13.5415 92.8797 12.9741 93.3841 12.7793C93.8881 12.5825 94.4558 12.8349 94.6511 13.3393L97.0633 19.4717L95.0283 20.1421Z" fill="#ECECEC"/>
<path d="M98.2754 19.1748C98.0856 18.1711 97.5023 16.6381 97.5023 16.6381L95.2518 12.559C95.0083 12.076 94.4188 11.8823 93.9362 12.1254C93.4532 12.3688 93.2587 12.958 93.5026 13.441L95.5753 17.1537C95.5804 17.1623 96.1248 19.2891 96.1248 19.2891C95.7056 18.9022 95.111 18.3717 94.5635 17.8821C93.3587 16.8041 92.6439 16.4001 92.6439 16.4001C92.3678 16.2278 92.1854 16.2033 91.8148 16.3771L89.5312 17.3758C89.4702 17.4061 89.4185 17.4489 89.3776 17.5037L88.4781 18.7038C88.1308 19.1188 88.1857 19.7363 88.6006 20.0832C89.0152 20.4305 89.6323 20.3749 89.9804 19.9611C89.9991 19.9386 90.6726 18.9656 90.7333 18.9344C91.1366 18.7272 91.8863 18.3717 92.2142 18.3822C92.563 18.3935 94.6568 20.6988 94.6568 20.6988C94.7369 20.7996 94.7462 20.9392 94.6801 21.0496L93.5465 23.0827C93.5158 23.1337 93.4715 23.1745 93.4182 23.2006L92.3783 23.7839C92.3184 23.8131 92.2507 23.8224 92.1854 23.8099L90.136 22.9264C90.0341 22.8824 89.9493 22.8019 89.9057 22.6997C89.5997 21.9802 89.5565 21.2923 89.5561 21.2845C89.5308 20.7439 89.0723 20.3267 88.5318 20.3519C87.9924 20.3737 87.574 20.8353 87.5992 21.3759C87.6043 21.4782 87.7357 23.5692 89.4375 24.9894C90.4206 25.8092 91.6363 26.1265 93.1899 25.9177C94.9835 25.677 96.0945 25.4382 97.6645 22.2007C98.0988 21.3043 98.4045 19.8581 98.2754 19.1748Z" fill="white"/>
</g>
<defs>
<filter id="filter0_bd" x="-6" y="-6" width="124" height="50" filterUnits="userSpaceOnUse" color-interpolation-filters="sRGB">
<feFlood flood-opacity="0" result="BackgroundImageFix"/>
<feGaussianBlur in="BackgroundImage" stdDeviation="5"/>
<feComposite in2="SourceAlpha" operator="in" result="effect1_backgroundBlur"/>
<feColorMatrix in="SourceAlpha" type="matrix" values="0 0 0 0 0 0 0 0 0 0 0 0 0 0 0 0 0 0 127 0" result="hardAlpha"/>
<feOffset/>
<feGaussianBlur stdDeviation="2"/>
<feComposite in2="hardAlpha" operator="out"/>
<feColorMatrix type="matrix" values="0 0 0 0 0 0 0 0 0 0 0 0 0 0 0 0 0 0 0.25 0"/>
<feBlend mode="normal" in2="effect1_backgroundBlur" result="effect2_dropShadow"/>
<feBlend mode="normal" in="SourceGraphic" in2="effect2_dropShadow" result="shape"/>
</filter>
<linearGradient id="paint0_linear" x1="15" y1="-4.50001" x2="89.6649" y2="46.8522" gradientUnits="userSpaceOnUse">
<stop stop-color="#12C2E9"/>
<stop offset="0.471918" stop-color="#C471ED"/>
<stop offset="1" stop-color="#F64F59"/>
</linearGradient>
</defs>
</svg>
