<svg width="109" height="38" viewBox="0 0 109 38" fill="none" xmlns="http://www.w3.org/2000/svg">
<g filter="url(#filter0_bd_1470_6124)">
<rect x="4" y="4" width="101" height="30" rx="4" fill="url(#paint0_linear_1470_6124)"/>
<path d="M13.2357 23C13.1477 23 13.0757 22.972 13.0197 22.916C12.9637 22.86 12.9357 22.788 12.9357 22.7V14.9C12.9357 14.812 12.9637 14.74 13.0197 14.684C13.0757 14.628 13.1477 14.6 13.2357 14.6H14.5077C14.6437 14.6 14.7397 14.632 14.7957 14.696C14.8597 14.752 14.8997 14.796 14.9157 14.828L17.8437 19.448V14.9C17.8437 14.812 17.8717 14.74 17.9277 14.684C17.9837 14.628 18.0557 14.6 18.1437 14.6H19.5837C19.6717 14.6 19.7437 14.628 19.7997 14.684C19.8557 14.74 19.8837 14.812 19.8837 14.9V22.7C19.8837 22.78 19.8557 22.852 19.7997 22.916C19.7437 22.972 19.6717 23 19.5837 23H18.2997C18.1717 23 18.0757 22.968 18.0117 22.904C17.9557 22.84 17.9197 22.796 17.9037 22.772L14.9757 18.332V22.7C14.9757 22.788 14.9477 22.86 14.8917 22.916C14.8357 22.972 14.7637 23 14.6757 23H13.2357ZM21.8607 23C21.7727 23 21.7007 22.972 21.6447 22.916C21.5887 22.86 21.5607 22.788 21.5607 22.7V14.9C21.5607 14.812 21.5887 14.74 21.6447 14.684C21.7007 14.628 21.7727 14.6 21.8607 14.6H27.4647C27.5527 14.6 27.6247 14.628 27.6807 14.684C27.7367 14.74 27.7647 14.812 27.7647 14.9V16.028C27.7647 16.116 27.7367 16.188 27.6807 16.244C27.6247 16.3 27.5527 16.328 27.4647 16.328H23.6367V17.948H27.2007C27.2887 17.948 27.3607 17.98 27.4167 18.044C27.4727 18.1 27.5007 18.172 27.5007 18.26V19.304C27.5007 19.384 27.4727 19.456 27.4167 19.52C27.3607 19.576 27.2887 19.604 27.2007 19.604H23.6367V21.272H27.5607C27.6487 21.272 27.7207 21.3 27.7767 21.356C27.8327 21.412 27.8607 21.484 27.8607 21.572V22.7C27.8607 22.788 27.8327 22.86 27.7767 22.916C27.7207 22.972 27.6487 23 27.5607 23H21.8607ZM30.5688 23C30.4328 23 30.3248 22.96 30.2448 22.88C30.1648 22.8 30.1168 22.708 30.1008 22.604L28.7928 14.936C28.7848 14.92 28.7808 14.904 28.7808 14.888C28.7808 14.872 28.7808 14.86 28.7808 14.852C28.7808 14.788 28.8048 14.732 28.8528 14.684C28.9088 14.628 28.9688 14.6 29.0328 14.6H30.5208C30.7448 14.6 30.8688 14.688 30.8928 14.864L31.6728 19.556L32.5368 16.784C32.5608 16.72 32.6008 16.652 32.6568 16.58C32.7128 16.5 32.8048 16.46 32.9328 16.46H33.7968C33.9328 16.46 34.0288 16.5 34.0848 16.58C34.1408 16.652 34.1768 16.72 34.1928 16.784L35.0568 19.544L35.8368 14.864C35.8608 14.688 35.9848 14.6 36.2088 14.6H37.6968C37.7688 14.6 37.8288 14.628 37.8768 14.684C37.9248 14.732 37.9488 14.788 37.9488 14.852C37.9488 14.86 37.9488 14.872 37.9488 14.888C37.9488 14.904 37.9488 14.92 37.9488 14.936L36.6408 22.604C36.6248 22.708 36.5768 22.8 36.4968 22.88C36.4168 22.96 36.3088 23 36.1728 23H35.0328C34.8968 23 34.7928 22.964 34.7208 22.892C34.6488 22.82 34.6008 22.752 34.5768 22.688L33.3648 19.256L32.1528 22.688C32.1288 22.752 32.0808 22.82 32.0088 22.892C31.9448 22.964 31.8448 23 31.7088 23H30.5688ZM41.9584 23C41.8704 23 41.7984 22.972 41.7424 22.916C41.6864 22.86 41.6584 22.788 41.6584 22.7V14.9C41.6584 14.812 41.6864 14.74 41.7424 14.684C41.7984 14.628 41.8704 14.6 41.9584 14.6H47.4664C47.5544 14.6 47.6264 14.628 47.6824 14.684C47.7464 14.74 47.7784 14.812 47.7784 14.9V16.112C47.7784 16.2 47.7464 16.272 47.6824 16.328C47.6264 16.384 47.5544 16.412 47.4664 16.412H43.7704V18.176H47.2264C47.3144 18.176 47.3864 18.208 47.4424 18.272C47.5064 18.328 47.5384 18.4 47.5384 18.488V19.688C47.5384 19.768 47.5064 19.84 47.4424 19.904C47.3864 19.96 47.3144 19.988 47.2264 19.988H43.7704V22.7C43.7704 22.788 43.7424 22.86 43.6864 22.916C43.6304 22.972 43.5584 23 43.4704 23H41.9584ZM49.3646 23C49.2766 23 49.2046 22.972 49.1486 22.916C49.0926 22.86 49.0646 22.788 49.0646 22.7V14.9C49.0646 14.812 49.0926 14.74 49.1486 14.684C49.2046 14.628 49.2766 14.6 49.3646 14.6H50.9486C51.0286 14.6 51.0966 14.628 51.1526 14.684C51.2166 14.74 51.2486 14.812 51.2486 14.9V21.188H54.8726C54.9606 21.188 55.0326 21.22 55.0886 21.284C55.1526 21.34 55.1846 21.412 55.1846 21.5V22.7C55.1846 22.788 55.1526 22.86 55.0886 22.916C55.0326 22.972 54.9606 23 54.8726 23H49.3646ZM55.7448 23C55.6808 23 55.6208 22.976 55.5648 22.928C55.5168 22.872 55.4928 22.812 55.4928 22.748C55.4928 22.708 55.4968 22.672 55.5048 22.64L58.3248 14.936C58.3488 14.848 58.3968 14.772 58.4688 14.708C58.5488 14.636 58.6568 14.6 58.7928 14.6H60.5688C60.7048 14.6 60.8088 14.636 60.8808 14.708C60.9608 14.772 61.0128 14.848 61.0368 14.936L63.8448 22.64C63.8608 22.672 63.8688 22.708 63.8688 22.748C63.8688 22.812 63.8408 22.872 63.7848 22.928C63.7368 22.976 63.6768 23 63.6048 23H62.1288C62.0088 23 61.9168 22.972 61.8528 22.916C61.7968 22.852 61.7608 22.796 61.7448 22.748L61.2768 21.524H58.0728L57.6168 22.748C57.6008 22.796 57.5648 22.852 57.5088 22.916C57.4528 22.972 57.3568 23 57.2208 23H55.7448ZM58.5648 19.796H60.7968L59.6688 16.628L58.5648 19.796ZM66.5466 23C66.4106 23 66.3026 22.964 66.2226 22.892C66.1426 22.82 66.0866 22.736 66.0546 22.64L63.6066 14.96C63.5906 14.92 63.5826 14.884 63.5826 14.852C63.5826 14.788 63.6066 14.732 63.6546 14.684C63.7106 14.628 63.7746 14.6 63.8466 14.6H65.3346C65.4626 14.6 65.5626 14.636 65.6346 14.708C65.7066 14.78 65.7506 14.848 65.7666 14.912L67.4586 20.456L69.1626 14.912C69.1866 14.848 69.2306 14.78 69.2946 14.708C69.3666 14.636 69.4666 14.6 69.5946 14.6H71.0826C71.1546 14.6 71.2146 14.628 71.2626 14.684C71.3186 14.732 71.3466 14.788 71.3466 14.852C71.3466 14.884 71.3386 14.92 71.3226 14.96L68.8746 22.64C68.8426 22.736 68.7866 22.82 68.7066 22.892C68.6346 22.964 68.5266 23 68.3826 23H66.5466ZM75.6411 23.12C74.9051 23.12 74.2651 23 73.7211 22.76C73.1771 22.52 72.7531 22.16 72.4491 21.68C72.1451 21.192 71.9771 20.584 71.9451 19.856C71.9371 19.512 71.9331 19.168 71.9331 18.824C71.9331 18.48 71.9371 18.132 71.9451 17.78C71.9771 17.06 72.1451 16.456 72.4491 15.968C72.7611 15.472 73.1891 15.1 73.7331 14.852C74.2771 14.604 74.9131 14.48 75.6411 14.48C76.3611 14.48 76.9931 14.604 77.5371 14.852C78.0891 15.1 78.5211 15.472 78.8331 15.968C79.1451 16.456 79.3131 17.06 79.3371 17.78C79.3531 18.132 79.3611 18.48 79.3611 18.824C79.3611 19.168 79.3531 19.512 79.3371 19.856C79.3051 20.584 79.1371 21.192 78.8331 21.68C78.5291 22.16 78.1051 22.52 77.5611 22.76C77.0171 23 76.3771 23.12 75.6411 23.12ZM75.6411 21.392C76.0651 21.392 76.4091 21.264 76.6731 21.008C76.9451 20.752 77.0891 20.344 77.1051 19.784C77.1211 19.432 77.1291 19.1 77.1291 18.788C77.1291 18.476 77.1211 18.152 77.1051 17.816C77.0891 17.44 77.0171 17.136 76.8891 16.904C76.7691 16.664 76.6011 16.488 76.3851 16.376C76.1691 16.264 75.9211 16.208 75.6411 16.208C75.3691 16.208 75.1251 16.264 74.9091 16.376C74.6931 16.488 74.5211 16.664 74.3931 16.904C74.2651 17.136 74.1931 17.44 74.1771 17.816C74.1691 18.152 74.1651 18.476 74.1651 18.788C74.1651 19.1 74.1691 19.432 74.1771 19.784C74.2011 20.344 74.3451 20.752 74.6091 21.008C74.8731 21.264 75.2171 21.392 75.6411 21.392ZM84.2681 23.12C83.5481 23.12 82.9161 23.004 82.3721 22.772C81.8361 22.532 81.4201 22.168 81.1241 21.68C80.8281 21.184 80.6801 20.556 80.6801 19.796V14.9C80.6801 14.812 80.7081 14.74 80.7641 14.684C80.8201 14.628 80.8921 14.6 80.9801 14.6H82.5281C82.6161 14.6 82.6881 14.628 82.7441 14.684C82.8001 14.74 82.8281 14.812 82.8281 14.9V19.784C82.8281 20.304 82.9521 20.696 83.2001 20.96C83.4561 21.216 83.8121 21.344 84.2681 21.344C84.7161 21.344 85.0641 21.216 85.3121 20.96C85.5681 20.696 85.6961 20.304 85.6961 19.784V14.9C85.6961 14.812 85.7241 14.74 85.7801 14.684C85.8441 14.628 85.9161 14.6 85.9961 14.6H87.5561C87.6361 14.6 87.7041 14.628 87.7601 14.684C87.8241 14.74 87.8561 14.812 87.8561 14.9V19.796C87.8561 20.556 87.7081 21.184 87.4121 21.68C87.1161 22.168 86.7001 22.532 86.1641 22.772C85.6281 23.004 84.9961 23.12 84.2681 23.12ZM89.7474 23C89.6594 23 89.5874 22.972 89.5314 22.916C89.4754 22.86 89.4474 22.788 89.4474 22.7V14.9C89.4474 14.812 89.4754 14.74 89.5314 14.684C89.5874 14.628 89.6594 14.6 89.7474 14.6H93.0114C94.0434 14.6 94.8554 14.84 95.4474 15.32C96.0474 15.792 96.3474 16.464 96.3474 17.336C96.3474 17.904 96.2074 18.384 95.9274 18.776C95.6554 19.168 95.2954 19.464 94.8474 19.664L96.5034 22.616C96.5274 22.664 96.5394 22.708 96.5394 22.748C96.5394 22.812 96.5114 22.872 96.4554 22.928C96.4074 22.976 96.3474 23 96.2754 23H94.6914C94.5394 23 94.4274 22.964 94.3554 22.892C94.2834 22.812 94.2314 22.74 94.1994 22.676L92.8314 20.036H91.5954V22.7C91.5954 22.788 91.5674 22.86 91.5114 22.916C91.4554 22.972 91.3834 23 91.2954 23H89.7474ZM91.5954 18.344H92.9874C93.3634 18.344 93.6434 18.252 93.8274 18.068C94.0194 17.884 94.1154 17.632 94.1154 17.312C94.1154 17 94.0234 16.748 93.8394 16.556C93.6634 16.364 93.3794 16.268 92.9874 16.268H91.5954V18.344Z" fill="white"/>
</g>
<defs>
<filter id="filter0_bd_1470_6124" x="-6" y="-6" width="121" height="50" filterUnits="userSpaceOnUse" color-interpolation-filters="sRGB">
<feFlood flood-opacity="0" result="BackgroundImageFix"/>
<feGaussianBlur in="BackgroundImage" stdDeviation="5"/>
<feComposite in2="SourceAlpha" operator="in" result="effect1_backgroundBlur_1470_6124"/>
<feColorMatrix in="SourceAlpha" type="matrix" values="0 0 0 0 0 0 0 0 0 0 0 0 0 0 0 0 0 0 127 0" result="hardAlpha"/>
<feOffset/>
<feGaussianBlur stdDeviation="2"/>
<feComposite in2="hardAlpha" operator="out"/>
<feColorMatrix type="matrix" values="0 0 0 0 0 0 0 0 0 0 0 0 0 0 0 0 0 0 0.25 0"/>
<feBlend mode="normal" in2="effect1_backgroundBlur_1470_6124" result="effect2_dropShadow_1470_6124"/>
<feBlend mode="normal" in="SourceGraphic" in2="effect2_dropShadow_1470_6124" result="shape"/>
</filter>
<linearGradient id="paint0_linear_1470_6124" x1="4" y1="4" x2="97.9515" y2="0.48629" gradientUnits="userSpaceOnUse">
<stop offset="0.047036" stop-color="#1774FF"/>
<stop offset="0.541667" stop-color="#4A8FF7"/>
<stop offset="1" stop-color="#1360D5"/>
</linearGradient>
</defs>
</svg>
