<svg width="129" height="38" viewBox="0 0 129 38" fill="none" xmlns="http://www.w3.org/2000/svg">
<g filter="url(#filter0_bd)">
<rect x="4" y="4" width="121" height="30" rx="4" fill="url(#paint0_linear)"/>
<path d="M16.3354 23.12C15.5754 23.12 14.9234 23.008 14.3794 22.784C13.8354 22.56 13.4234 22.268 13.1434 21.908C12.8714 21.54 12.7274 21.14 12.7114 20.708C12.7114 20.644 12.7354 20.588 12.7834 20.54C12.8394 20.484 12.9034 20.456 12.9754 20.456H14.4874C14.5834 20.456 14.6594 20.476 14.7154 20.516C14.7794 20.548 14.8434 20.6 14.9074 20.672C15.0114 20.88 15.1794 21.052 15.4114 21.188C15.6434 21.324 15.9514 21.392 16.3354 21.392C16.7914 21.392 17.1394 21.32 17.3794 21.176C17.6194 21.032 17.7394 20.836 17.7394 20.588C17.7394 20.412 17.6754 20.268 17.5474 20.156C17.4274 20.044 17.2354 19.944 16.9714 19.856C16.7074 19.768 16.3154 19.668 15.7954 19.556C14.8354 19.356 14.1154 19.064 13.6354 18.68C13.1634 18.288 12.9274 17.732 12.9274 17.012C12.9274 16.524 13.0634 16.088 13.3354 15.704C13.6074 15.32 13.9954 15.02 14.4994 14.804C15.0034 14.588 15.5914 14.48 16.2634 14.48C16.9594 14.48 17.5634 14.6 18.0754 14.84C18.5874 15.08 18.9754 15.384 19.2394 15.752C19.5114 16.112 19.6554 16.468 19.6714 16.82C19.6714 16.892 19.6474 16.952 19.5994 17C19.5514 17.048 19.4914 17.072 19.4194 17.072H17.8354C17.7394 17.072 17.6594 17.056 17.5954 17.024C17.5394 16.992 17.4874 16.94 17.4394 16.868C17.3914 16.684 17.2594 16.528 17.0434 16.4C16.8354 16.272 16.5754 16.208 16.2634 16.208C15.9034 16.208 15.6274 16.272 15.4354 16.4C15.2434 16.528 15.1474 16.716 15.1474 16.964C15.1474 17.132 15.1994 17.272 15.3034 17.384C15.4154 17.496 15.5914 17.6 15.8314 17.696C16.0794 17.784 16.4314 17.876 16.8874 17.972C17.6314 18.108 18.2234 18.28 18.6634 18.488C19.1114 18.688 19.4394 18.952 19.6474 19.28C19.8554 19.6 19.9594 20.004 19.9594 20.492C19.9594 21.028 19.8034 21.496 19.4914 21.896C19.1874 22.288 18.7594 22.592 18.2074 22.808C17.6634 23.016 17.0394 23.12 16.3354 23.12Z" fill="white"/>
<path d="M23.2264 23C23.1464 23 23.0744 22.972 23.0104 22.916C22.9544 22.852 22.9264 22.78 22.9264 22.7V16.484H20.7904C20.7104 16.484 20.6384 16.456 20.5744 16.4C20.5184 16.336 20.4904 16.264 20.4904 16.184V14.9C20.4904 14.812 20.5184 14.74 20.5744 14.684C20.6384 14.628 20.7104 14.6 20.7904 14.6H27.2464C27.3344 14.6 27.4064 14.628 27.4624 14.684C27.5184 14.74 27.5464 14.812 27.5464 14.9V16.184C27.5464 16.272 27.5184 16.344 27.4624 16.4C27.4064 16.456 27.3344 16.484 27.2464 16.484H25.1104V22.7C25.1104 22.78 25.0824 22.852 25.0264 22.916C24.9704 22.972 24.8984 23 24.8104 23H23.2264Z" fill="white"/>
<path d="M27.3016 23C27.2376 23 27.1776 22.976 27.1216 22.928C27.0736 22.872 27.0496 22.812 27.0496 22.748C27.0496 22.7 27.0536 22.664 27.0616 22.64L29.8816 14.936C29.9056 14.84 29.9576 14.76 30.0376 14.696C30.1176 14.632 30.2216 14.6 30.3496 14.6H32.1256C32.2536 14.6 32.3576 14.632 32.4376 14.696C32.5176 14.76 32.5696 14.84 32.5936 14.936L35.4016 22.64L35.4256 22.748C35.4256 22.812 35.3976 22.872 35.3416 22.928C35.2936 22.976 35.2336 23 35.1616 23H33.6856C33.4936 23 33.3656 22.916 33.3016 22.748L32.8336 21.524H29.6296L29.1736 22.748C29.1096 22.916 28.9776 23 28.7776 23H27.3016ZM32.3536 19.796L31.2376 16.628L30.1216 19.796H32.3536Z" fill="white"/>
<path d="M36.6714 23C36.5914 23 36.5194 22.972 36.4554 22.916C36.3994 22.852 36.3714 22.78 36.3714 22.7V14.9C36.3714 14.812 36.3994 14.74 36.4554 14.684C36.5194 14.628 36.5914 14.6 36.6714 14.6H42.1914C42.2794 14.6 42.3514 14.628 42.4074 14.684C42.4634 14.74 42.4914 14.812 42.4914 14.9V16.112C42.4914 16.192 42.4634 16.264 42.4074 16.328C42.3514 16.384 42.2794 16.412 42.1914 16.412H38.4834V18.176H41.9514C42.0394 18.176 42.1114 18.208 42.1674 18.272C42.2234 18.328 42.2514 18.4 42.2514 18.488V19.688C42.2514 19.768 42.2234 19.84 42.1674 19.904C42.1114 19.96 42.0394 19.988 41.9514 19.988H38.4834V22.7C38.4834 22.788 38.4554 22.86 38.3994 22.916C38.3434 22.972 38.2714 23 38.1834 23H36.6714Z" fill="white"/>
<path d="M44.0894 23C44.0094 23 43.9374 22.972 43.8734 22.916C43.8174 22.852 43.7894 22.78 43.7894 22.7V14.9C43.7894 14.812 43.8174 14.74 43.8734 14.684C43.9374 14.628 44.0094 14.6 44.0894 14.6H49.6094C49.6974 14.6 49.7694 14.628 49.8254 14.684C49.8814 14.74 49.9094 14.812 49.9094 14.9V16.112C49.9094 16.192 49.8814 16.264 49.8254 16.328C49.7694 16.384 49.6974 16.412 49.6094 16.412H45.9014V18.176H49.3694C49.4574 18.176 49.5294 18.208 49.5854 18.272C49.6414 18.328 49.6694 18.4 49.6694 18.488V19.688C49.6694 19.768 49.6414 19.84 49.5854 19.904C49.5294 19.96 49.4574 19.988 49.3694 19.988H45.9014V22.7C45.9014 22.788 45.8734 22.86 45.8174 22.916C45.7614 22.972 45.6894 23 45.6014 23H44.0894Z" fill="white"/>
<path d="M57.0302 23.12C55.8862 23.12 54.9902 22.844 54.3422 22.292C53.7022 21.732 53.3622 20.924 53.3222 19.868C53.3142 19.652 53.3102 19.3 53.3102 18.812C53.3102 18.316 53.3142 17.956 53.3222 17.732C53.3622 16.692 53.7102 15.892 54.3662 15.332C55.0222 14.764 55.9102 14.48 57.0302 14.48C57.7342 14.48 58.3662 14.6 58.9262 14.84C59.4862 15.072 59.9262 15.408 60.2462 15.848C60.5742 16.28 60.7422 16.788 60.7502 17.372V17.396C60.7502 17.46 60.7222 17.516 60.6662 17.564C60.6182 17.604 60.5622 17.624 60.4982 17.624H58.8782C58.7742 17.624 58.6942 17.604 58.6382 17.564C58.5822 17.516 58.5342 17.432 58.4942 17.312C58.3822 16.904 58.2062 16.62 57.9662 16.46C57.7262 16.292 57.4102 16.208 57.0182 16.208C56.0742 16.208 55.5862 16.736 55.5542 17.792C55.5462 18.008 55.5422 18.34 55.5422 18.788C55.5422 19.236 55.5462 19.576 55.5542 19.808C55.5862 20.864 56.0742 21.392 57.0182 21.392C57.4102 21.392 57.7302 21.308 57.9782 21.14C58.2262 20.964 58.3982 20.68 58.4942 20.288C58.5262 20.168 58.5702 20.088 58.6262 20.048C58.6822 20 58.7662 19.976 58.8782 19.976H60.4982C60.5702 19.976 60.6302 20 60.6782 20.048C60.7342 20.096 60.7582 20.156 60.7502 20.228C60.7422 20.812 60.5742 21.324 60.2462 21.764C59.9262 22.196 59.4862 22.532 58.9262 22.772C58.3662 23.004 57.7342 23.12 57.0302 23.12Z" fill="white"/>
<path d="M62.312 23C62.224 23 62.152 22.972 62.096 22.916C62.04 22.86 62.012 22.788 62.012 22.7V14.9C62.012 14.812 62.04 14.74 62.096 14.684C62.16 14.628 62.232 14.6 62.312 14.6H63.86C63.948 14.6 64.02 14.628 64.076 14.684C64.14 14.74 64.172 14.812 64.172 14.9V17.792H67.124V14.9C67.124 14.812 67.152 14.74 67.208 14.684C67.264 14.628 67.336 14.6 67.424 14.6H68.972C69.06 14.6 69.132 14.628 69.188 14.684C69.244 14.74 69.272 14.812 69.272 14.9V22.7C69.272 22.788 69.244 22.86 69.188 22.916C69.132 22.972 69.06 23 68.972 23H67.424C67.336 23 67.264 22.972 67.208 22.916C67.152 22.86 67.124 22.788 67.124 22.7V19.712H64.172V22.7C64.172 22.788 64.14 22.86 64.076 22.916C64.02 22.972 63.948 23 63.86 23H62.312Z" fill="white"/>
<path d="M74.3854 23.12C73.2574 23.12 72.3694 22.844 71.7214 22.292C71.0734 21.74 70.7294 20.928 70.6894 19.856C70.6814 19.624 70.6774 19.28 70.6774 18.824C70.6774 18.36 70.6814 18.012 70.6894 17.78C70.7294 16.724 71.0774 15.912 71.7334 15.344C72.3974 14.768 73.2814 14.48 74.3854 14.48C75.4894 14.48 76.3734 14.768 77.0374 15.344C77.7014 15.912 78.0494 16.724 78.0814 17.78C78.0974 18.244 78.1054 18.592 78.1054 18.824C78.1054 19.048 78.0974 19.392 78.0814 19.856C78.0414 20.928 77.6974 21.74 77.0494 22.292C76.4014 22.844 75.5134 23.12 74.3854 23.12ZM74.3854 21.392C74.8254 21.392 75.1734 21.26 75.4294 20.996C75.6934 20.732 75.8334 20.328 75.8494 19.784C75.8654 19.32 75.8734 18.992 75.8734 18.8C75.8734 18.592 75.8654 18.264 75.8494 17.816C75.8334 17.272 75.6934 16.868 75.4294 16.604C75.1654 16.34 74.8174 16.208 74.3854 16.208C73.9534 16.208 73.6054 16.34 73.3414 16.604C73.0854 16.868 72.9454 17.272 72.9214 17.816C72.9134 18.04 72.9094 18.368 72.9094 18.8C72.9094 19.224 72.9134 19.552 72.9214 19.784C72.9454 20.328 73.0854 20.732 73.3414 20.996C73.5974 21.26 73.9454 21.392 74.3854 21.392Z" fill="white"/>
<path d="M79.7964 23C79.7164 23 79.6444 22.972 79.5804 22.916C79.5244 22.852 79.4964 22.78 79.4964 22.7V14.9C79.4964 14.812 79.5244 14.74 79.5804 14.684C79.6444 14.628 79.7164 14.6 79.7964 14.6H81.4044C81.4924 14.6 81.5644 14.628 81.6204 14.684C81.6844 14.74 81.7164 14.812 81.7164 14.9V22.7C81.7164 22.788 81.6844 22.86 81.6204 22.916C81.5644 22.972 81.4924 23 81.4044 23H79.7964Z" fill="white"/>
<path d="M86.831 23.12C85.687 23.12 84.791 22.844 84.143 22.292C83.503 21.732 83.163 20.924 83.123 19.868C83.115 19.652 83.111 19.3 83.111 18.812C83.111 18.316 83.115 17.956 83.123 17.732C83.163 16.692 83.511 15.892 84.167 15.332C84.823 14.764 85.711 14.48 86.831 14.48C87.535 14.48 88.167 14.6 88.727 14.84C89.287 15.072 89.727 15.408 90.047 15.848C90.375 16.28 90.543 16.788 90.551 17.372V17.396C90.551 17.46 90.523 17.516 90.467 17.564C90.419 17.604 90.363 17.624 90.299 17.624H88.679C88.575 17.624 88.495 17.604 88.439 17.564C88.383 17.516 88.335 17.432 88.295 17.312C88.183 16.904 88.007 16.62 87.767 16.46C87.527 16.292 87.211 16.208 86.819 16.208C85.875 16.208 85.387 16.736 85.355 17.792C85.347 18.008 85.343 18.34 85.343 18.788C85.343 19.236 85.347 19.576 85.355 19.808C85.387 20.864 85.875 21.392 86.819 21.392C87.211 21.392 87.531 21.308 87.779 21.14C88.027 20.964 88.199 20.68 88.295 20.288C88.327 20.168 88.371 20.088 88.427 20.048C88.483 20 88.567 19.976 88.679 19.976H90.299C90.371 19.976 90.431 20 90.479 20.048C90.535 20.096 90.559 20.156 90.551 20.228C90.543 20.812 90.375 21.324 90.047 21.764C89.727 22.196 89.287 22.532 88.727 22.772C88.167 23.004 87.535 23.12 86.831 23.12Z" fill="white"/>
<path d="M92.1128 23C92.0328 23 91.9608 22.972 91.8968 22.916C91.8408 22.852 91.8128 22.78 91.8128 22.7V14.9C91.8128 14.812 91.8408 14.74 91.8968 14.684C91.9608 14.628 92.0328 14.6 92.1128 14.6H97.7168C97.8048 14.6 97.8768 14.628 97.9328 14.684C97.9888 14.74 98.0168 14.812 98.0168 14.9V16.028C98.0168 16.108 97.9888 16.18 97.9328 16.244C97.8768 16.3 97.8048 16.328 97.7168 16.328H93.8888V17.948H97.4528C97.5408 17.948 97.6128 17.98 97.6688 18.044C97.7248 18.1 97.7528 18.172 97.7528 18.26V19.304C97.7528 19.384 97.7248 19.456 97.6688 19.52C97.6128 19.576 97.5408 19.604 97.4528 19.604H93.8888V21.272H97.8128C97.9008 21.272 97.9728 21.3 98.0288 21.356C98.0848 21.412 98.1128 21.484 98.1128 21.572V22.7C98.1128 22.78 98.0848 22.852 98.0288 22.916C97.9728 22.972 97.9008 23 97.8128 23H92.1128Z" fill="white"/>
<path d="M110.347 15.0383C110.235 14.6819 109.765 14.6819 109.653 15.0383C109.49 15.555 109.018 15.918 108.472 15.918C108.302 15.918 108.176 16.0221 108.125 16.1853C108.073 16.3495 108.115 16.522 108.262 16.6321C108.695 16.9575 108.87 17.5266 108.708 18.0412C108.649 18.2312 108.72 18.3939 108.846 18.488C108.969 18.5805 109.123 18.5942 109.265 18.488C109.702 18.1598 110.298 18.1598 110.735 18.488C110.876 18.5942 111.031 18.5805 111.154 18.488C111.279 18.3939 111.351 18.2312 111.291 18.0412C111.129 17.5266 111.304 16.9575 111.738 16.6321C111.884 16.522 111.927 16.3495 111.875 16.1853C111.824 16.0221 111.697 15.918 111.528 15.918C110.981 15.918 110.509 15.555 110.347 15.0383Z" fill="white"/>
<path fill-rule="evenodd" clip-rule="evenodd" d="M104.896 17.2502C104.896 14.4312 107.181 12.146 110 12.146C112.819 12.146 115.104 14.4312 115.104 17.2502C115.104 17.4993 115.086 17.7443 115.052 17.9841C114.978 18.1804 114.893 18.3712 114.797 18.5558C114.032 20.0374 112.601 21.1184 110.902 21.4043C110.609 21.4536 110.308 21.4793 110 21.4793C109.64 21.4793 109.289 21.4441 108.949 21.3772C107.285 21.0489 105.895 19.9546 105.162 18.4758C105.083 18.3162 105.011 18.152 104.948 17.9839C104.914 17.7442 104.896 17.4992 104.896 17.2502ZM108.818 14.7757C109.187 13.6028 110.812 13.6028 111.181 14.7757C111.234 14.943 111.379 15.043 111.528 15.043C112.758 15.043 113.204 16.626 112.263 17.3319C112.133 17.4292 112.073 17.6093 112.126 17.7787C112.307 18.3534 112.075 18.891 111.679 19.1878C111.282 19.4862 110.698 19.5542 110.209 19.1878C110.083 19.0932 109.916 19.0932 109.79 19.1878C109.302 19.5542 108.718 19.4862 108.32 19.1878C107.925 18.891 107.693 18.3534 107.874 17.7787C107.927 17.6093 107.866 17.4292 107.737 17.3319C106.796 16.626 107.241 15.043 108.472 15.043C108.621 15.043 108.766 14.943 108.818 14.7757Z" fill="white"/>
<path d="M104.904 19.7382C104.852 19.8257 104.797 19.9201 104.739 20.0218L103.674 21.8667C103.542 22.0944 103.42 22.305 103.35 22.4793C103.282 22.65 103.195 22.9461 103.386 23.2202C103.58 23.4977 103.891 23.5141 104.075 23.505C104.261 23.4957 104.498 23.449 104.753 23.3989L105.214 23.3081C105.47 23.2578 105.622 23.2288 105.735 23.221C105.786 23.2175 105.814 23.2199 105.827 23.2222C105.834 23.2232 105.837 23.2245 105.837 23.2245L105.839 23.2252L105.84 23.2263C105.84 23.2263 105.843 23.2289 105.847 23.2338C105.856 23.2444 105.872 23.2671 105.895 23.3135C105.944 23.4149 105.995 23.5609 106.079 23.8077L106.232 24.2527C106.316 24.4983 106.394 24.7269 106.479 24.893C106.563 25.057 106.733 25.3179 107.07 25.3467C107.403 25.3752 107.616 25.1523 107.729 25.0075C107.845 24.8596 107.967 24.649 108.098 24.4212L109.142 22.6134C109.204 22.5058 109.261 22.4074 109.312 22.317C109.132 22.2974 108.955 22.2701 108.78 22.2356C107.189 21.9218 105.815 21.007 104.904 19.7382Z" fill="white"/>
<path d="M115.006 19.861C115.032 19.9066 115.059 19.9539 115.088 20.0028L116.164 21.8667C116.295 22.0944 116.417 22.305 116.487 22.4793C116.556 22.65 116.642 22.9461 116.451 23.2202C116.257 23.4977 115.947 23.5141 115.763 23.505C115.576 23.4957 115.339 23.449 115.085 23.3989L114.623 23.3081C114.367 23.2578 114.215 23.2288 114.103 23.221C114.051 23.2175 114.024 23.2199 114.01 23.2222C114.004 23.2232 114 23.2245 114 23.2245L113.998 23.2252L113.997 23.2263C113.997 23.2263 113.994 23.2289 113.99 23.2338C113.981 23.2444 113.965 23.2671 113.943 23.3135C113.893 23.4149 113.842 23.5609 113.758 23.8077L113.606 24.2528C113.522 24.4983 113.444 24.7269 113.358 24.893C113.274 25.057 113.105 25.3179 112.768 25.3467C112.435 25.3752 112.222 25.1523 112.108 25.0075C111.992 24.8596 111.871 24.649 111.739 24.4212L110.695 22.6133C110.637 22.5116 110.583 22.4182 110.534 22.3319C110.707 22.3173 110.878 22.2956 111.048 22.2671C112.659 21.9959 114.061 21.1106 115.006 19.861Z" fill="white"/>
</g>
<defs>
<filter id="filter0_bd" x="-6" y="-6" width="141" height="50" filterUnits="userSpaceOnUse" color-interpolation-filters="sRGB">
<feFlood flood-opacity="0" result="BackgroundImageFix"/>
<feGaussianBlur in="BackgroundImage" stdDeviation="5"/>
<feComposite in2="SourceAlpha" operator="in" result="effect1_backgroundBlur"/>
<feColorMatrix in="SourceAlpha" type="matrix" values="0 0 0 0 0 0 0 0 0 0 0 0 0 0 0 0 0 0 127 0" result="hardAlpha"/>
<feOffset/>
<feGaussianBlur stdDeviation="2"/>
<feComposite in2="hardAlpha" operator="out"/>
<feColorMatrix type="matrix" values="0 0 0 0 0 0 0 0 0 0 0 0 0 0 0 0 0 0 0.25 0"/>
<feBlend mode="normal" in2="effect1_backgroundBlur" result="effect2_dropShadow"/>
<feBlend mode="normal" in="SourceGraphic" in2="effect2_dropShadow" result="shape"/>
</filter>
<linearGradient id="paint0_linear" x1="4" y1="4" x2="85.9588" y2="41.6987" gradientUnits="userSpaceOnUse">
<stop stop-color="#00D2FF"/>
<stop offset="1" stop-color="#3A7BD5"/>
</linearGradient>
</defs>
</svg>
